<svg xmlns="http://www.w3.org/2000/svg" version="1.1" xmlns:xlink="http://www.w3.org/1999/xlink" xmlns:svgjs="http://svgjs.dev/svgjs" width="128" height="128" viewBox="0 0 128 128"><g transform="matrix(0.8046875,0,0,0.8046875,12.506335372881338,14.326884442042754)"><svg viewBox="0 0 59 57" data-background-color="#ffffff" preserveAspectRatio="xMidYMid meet" height="123" width="128" xmlns="http://www.w3.org/2000/svg" xmlns:xlink="http://www.w3.org/1999/xlink"><defs></defs><g id="tight-bounds" transform="matrix(1,0,0,1,-0.0036289999999894462,0.10644495310253888)"><svg viewBox="0 0 59.00725799999999 56.787110093794915" height="56.787110093794915" width="59.00725799999999"><g><svg viewBox="0 0 59.00725799999999 56.787110093794915" height="56.787110093794915" width="59.00725799999999"><g><svg viewBox="0 0 59.00725799999999 56.787110093794915" height="56.787110093794915" width="59.00725799999999"><g><svg viewBox="0 0 59.00725799999999 56.787110093794915" height="56.787110093794915" width="59.00725799999999"><g><svg viewBox="0 0 59.00725799999999 56.787110093794915" height="56.787110093794915" width="59.00725799999999"><g><svg viewBox="0 0 59.00725799999999 56.787110093794915" height="56.787110093794915" width="59.00725799999999"><g><svg viewBox="0 0 59.00725799999999 56.787110093794915" height="56.787110093794915" width="59.00725799999999"><g><svg xmlns="http://www.w3.org/2000/svg" xmlns:xlink="http://www.w3.org/1999/xlink" version="1.1" x="0" y="0" viewBox="4.99956570472231 6.693999999999999 90.00025949498807 86.61399999999999" enable-background="new 0 0 100 100" xml:space="preserve" height="56.787110093794915" width="59.00725799999999" class="icon-icon-0" data-fill-palette-color="accent" id="icon-0"><path d="M94.466 40.696l-0.844-2.933c-1.728-5.991-7.172-9.715-12.918-9.715-2.073 0-4.181 0.483-6.175 1.516l-14.165 7.763 4.115-14.562c1.662-8.316-4.697-16.071-13.172-16.071h-3.053c-8.479 0-14.833 7.755-13.172 16.071l2.432 13.718-12.044-6.918c-1.989-1.032-4.102-1.516-6.17-1.516-5.751 0-11.19 3.724-12.923 9.715l-0.844 2.933C3.182 48.839 8.871 57.1 17.315 57.806c0 0 10.023 2.364 14.663 0.394l-11.23 10.186c-6.14 5.843-5.396 15.846 1.539 20.722l2.493 1.752c2.37 1.666 5.056 2.448 7.705 2.448 5.104 0 10.062-2.91 12.315-8.018l4.919-11.757 5.506 11.757c2.253 5.107 7.212 8.018 12.315 8.018 2.649 0 5.335-0.782 7.7-2.448l2.497-1.752c6.937-4.876 7.68-14.879 1.535-20.722L66.745 57.57c4.307 2.02 15.939 0.235 15.939 0.235C91.129 57.1 96.818 48.839 94.466 40.696M40.033 13.384c2.025-2.471 5.025-3.892 8.222-3.892h3.053c3.196 0 6.196 1.421 8.226 3.892 2.003 2.449 2.812 5.624 2.222 8.731l-4.539 16.06c-1.618-0.835-3.394-1.401-5.274-1.652l-2.16-14.156-2.09 14.145c-2.23 0.287-4.312 1.028-6.162 2.126-0.595-0.56-1.019-1.297-1.172-2.149l-2.532-14.271C37.2 19.075 38.005 15.861 40.033 13.384M9.68 50.45c-1.811-2.633-2.344-5.908-1.456-8.979l0.849-2.931c1.308-4.53 5.515-7.692 10.229-7.692 1.684 0 3.311 0.396 4.832 1.177l14.812 8.506c-1.513 1.362-2.768 2.997-3.682 4.841l-14.248-1.793 12.861 5.753c-0.214 1.056-0.328 2.145-0.328 3.263 0 0.977 0.268 2.857 0.268 2.857-4.465 1.9-16.338-0.439-16.338-0.439C14.319 54.726 11.481 53.065 9.68 50.45M42.237 84.16c-1.701 3.855-5.527 6.348-9.752 6.348-2.182 0-4.29-0.669-6.092-1.937l-2.497-1.756c-2.615-1.839-4.255-4.724-4.491-7.913-0.235-3.192 0.958-6.284 3.224-8.442l12.358-11.204c0.87 1.924 2.104 3.651 3.612 5.088l-6.053 12.815 9.748-10.17c1.578 0.82 3.306 1.382 5.134 1.649l0.69 1.471L42.237 84.16zM80.621 78.899c-0.241 3.192-1.872 6.077-4.491 7.916l-2.493 1.756c-1.806 1.268-3.914 1.937-6.096 1.937-4.225 0-8.056-2.492-9.778-6.408l-6.586-14.053 0.568-1.35c2.086-0.254 4.054-0.89 5.82-1.856l9.914 10.318-6.148-13.165c1.32-1.343 2.405-2.915 3.196-4.643l12.866 11.104C79.681 72.657 80.853 75.731 80.621 78.899M65.853 54.754c0 0 0.162-1.426 0.162-2.16 0-1.087-0.114-2.149-0.315-3.178l13.286-5.838-14.742 1.675c-0.932-1.837-2.199-3.468-3.734-4.817l15.311-8.388c1.534-0.793 3.179-1.2 4.885-1.2 4.714 0 8.921 3.162 10.229 7.692l0.844 2.931c0.893 3.071 0.358 6.347-1.456 8.979-1.789 2.6-4.605 4.258-7.74 4.557C82.58 55.007 72.412 56.918 65.853 54.754" fill="#fe633d" data-fill-palette-color="accent"></path></svg></g></svg></g></svg></g></svg></g></svg></g></svg></g></svg></g></svg><rect width="59.00725799999999" height="56.787110093794915" fill="none" stroke="none" visibility="hidden"></rect></g></svg></g></svg>